<svg width="20" height="20" viewBox="0 0 20 20" fill="none" xmlns="http://www.w3.org/2000/svg">
<path d="M10.0015 17.9163C8.90645 17.9163 7.87722 17.7086 6.91374 17.293C5.95027 16.8775 5.11222 16.3135 4.39958 15.6011C3.68694 14.8888 3.1227 14.0511 2.70687 13.088C2.29118 12.125 2.08333 11.096 2.08333 10.0011C2.08333 8.90613 2.29111 7.8769 2.70666 6.91342C3.12222 5.94995 3.68618 5.1119 4.39854 4.39926C5.1109 3.68662 5.94861 3.12238 6.91166 2.70655C7.87472 2.29085 8.90368 2.08301 9.99854 2.08301C11.0935 2.08301 12.1228 2.29079 13.0862 2.70634C14.0497 3.1219 14.8878 3.68586 15.6004 4.39822C16.3131 5.11058 16.8773 5.94829 17.2931 6.91134C17.7088 7.8744 17.9167 8.90336 17.9167 9.99822C17.9167 11.0932 17.7089 12.1225 17.2933 13.0859C16.8778 14.0494 16.3138 14.8875 15.6015 15.6001C14.8891 16.3127 14.0514 16.877 13.0883 17.2928C12.1253 17.7085 11.0963 17.9163 10.0015 17.9163Z" fill="#050A0F"/>
<path d="M8.81733 13.5445L14.4198 7.94197L13.5417 7.06384L8.81733 11.7882L6.44233 9.41322L5.56421 10.2913L8.81733 13.5445ZM10.0015 17.9163C8.9065 17.9163 7.87726 17.7086 6.91379 17.293C5.95032 16.8775 5.11226 16.3135 4.39962 15.6011C3.68699 14.8888 3.12275 14.0511 2.70692 13.088C2.29122 12.125 2.08337 11.096 2.08337 10.0011C2.08337 8.90613 2.29115 7.8769 2.70671 6.91342C3.12226 5.94995 3.68622 5.1119 4.39858 4.39926C5.11094 3.68662 5.94865 3.12238 6.91171 2.70655C7.87476 2.29085 8.90372 2.08301 9.99858 2.08301C11.0936 2.08301 12.1228 2.29079 13.0863 2.70634C14.0498 3.1219 14.8878 3.68586 15.6005 4.39822C16.3131 5.11058 16.8773 5.94829 17.2932 6.91134C17.7089 7.8744 17.9167 8.90336 17.9167 9.99822C17.9167 11.0932 17.7089 12.1225 17.2934 13.0859C16.8778 14.0494 16.3139 14.8875 15.6015 15.6001C14.8891 16.3127 14.0514 16.877 13.0884 17.2928C12.1253 17.7085 11.0964 17.9163 10.0015 17.9163Z" fill="#04FBFF"/>
</svg>
