<svg width="40" height="24" viewBox="0 0 40 24" fill="none" xmlns="http://www.w3.org/2000/svg">
<path d="M40 23.4248H34.3096L28.877 17.9922H11.123L5.69043 23.4248H0L3.26074 0H36.7393L40 23.4248ZM1.93945 21.7363H5.03906L10.4717 16.3037H29.5664L34.999 21.7363H38.1055L35.1992 1.68848H4.79492L1.93945 21.7363ZM11.7354 8.59668H14.9053V9.38281H11.7354V12.5537H10.9492V9.38281H7.77832V8.59668H10.9492V5.42578H11.7354V8.59668ZM31.3779 10.8652C31.629 10.8653 31.8224 10.9361 31.9834 11.1035C32.1508 11.271 32.2216 11.4579 32.2217 11.709C32.2217 11.9603 32.151 12.1543 31.9834 12.3154C31.8224 12.4828 31.6354 12.5536 31.3779 12.5537C31.1202 12.5537 30.9326 12.483 30.7715 12.3154C30.6039 12.1479 30.5332 11.9603 30.5332 11.709C30.5333 11.4579 30.6041 11.2645 30.7715 11.1035C30.9326 10.936 31.1266 10.8652 31.3779 10.8652ZM27.7559 5.43262C28.0071 5.43264 28.2003 5.50348 28.3613 5.6709C28.5223 5.83192 28.5995 6.02524 28.5996 6.27637C28.5996 6.5277 28.5289 6.7217 28.3613 6.88281C28.2003 7.04374 28.0135 7.12107 27.7559 7.12109C27.4983 7.12109 27.3179 7.05013 27.1504 6.88281C26.9893 6.7217 26.9111 6.53414 26.9111 6.27637C26.9112 6.01881 26.9829 5.83192 27.1504 5.6709C27.3179 5.50996 27.5047 5.43262 27.7559 5.43262Z" fill="#04FBFF"/>
<path d="M9.98226 13.5201H12.7018V10.3559H15.8724V7.63643H12.7018V4.46582H9.98226V7.63643H6.81165V10.3559H9.98226V13.5201Z" fill="white"/>
<path d="M31.3775 13.5202C31.8931 13.5202 32.3184 13.3462 32.6664 12.9982C33.0144 12.6502 33.1884 12.2184 33.1884 11.7093C33.1884 11.2002 33.0144 10.7684 32.6664 10.4204C32.3184 10.0724 31.8866 9.89844 31.3775 9.89844C30.8684 9.89844 30.4366 10.0724 30.0886 10.4204C29.7406 10.7684 29.5667 11.2002 29.5667 11.7093C29.5667 12.2184 29.7406 12.6502 30.0886 12.9982C30.4366 13.3462 30.8684 13.5202 31.3775 13.5202Z" fill="white"/>
<path d="M27.7558 8.08754C28.2714 8.08754 28.6967 7.91354 29.0447 7.56555C29.3927 7.21755 29.5667 6.78578 29.5667 6.27668C29.5667 5.76758 29.3927 5.33581 29.0447 4.98781C28.6967 4.63982 28.2649 4.46582 27.7558 4.46582C27.2467 4.46582 26.8149 4.63982 26.4669 4.98781C26.1189 5.33581 25.9449 5.76758 25.9449 6.27668C25.9449 6.78578 26.1189 7.21755 26.4669 7.56555C26.8149 7.91354 27.2467 8.08754 27.7558 8.08754Z" fill="white"/>
</svg>
