<svg width="21" height="20" viewBox="0 0 21 20" fill="none" xmlns="http://www.w3.org/2000/svg">
<path d="M10.5 20C16.0228 20 20.5 15.5228 20.5 10C20.5 4.47715 16.0228 0 10.5 0C4.97715 0 0.5 4.47715 0.5 10C0.5 15.5228 4.97715 20 10.5 20Z" fill="#00B1FF"/>
<path d="M11.9359 10.7118L11.2288 11.4189L16.0901 16.2803L16.7972 15.5732L11.9359 10.7118Z" fill="white"/>
<path d="M4.90999 3.70793L4.20288 4.41504L9.06424 9.2764L9.77135 8.56929L4.90999 3.70793Z" fill="white"/>
<path d="M16.0816 3.7163L11.2236 8.58105L11.9312 9.28767L16.7892 4.42292L16.0816 3.7163Z" fill="white"/>
<path d="M9.0772 10.7231L4.21924 15.5879L4.92684 16.2945L9.7848 11.4298L9.0772 10.7231Z" fill="white"/>
</svg>
